<svg xmlns="http://www.w3.org/2000/svg" viewBox="0 0 72.85 72.86"><defs><style>.cls-1{fill:#fff;}</style></defs><title>Asset 3</title><g id="Layer_2" data-name="Layer 2"><g id="Layer_1-2" data-name="Layer 1"><path class="cls-1" d="M53.85,23.84h0a3,3,0,0,0-4.24,0l-6.55,6.78a3,3,0,0,1-4.24,0L28.55,20.35a3,3,0,0,0-2.12-.88H18.52a3,3,0,0,0-3,3h0a3,3,0,0,0,3,3h5.41a3,3,0,0,1,2.12.88l8.51,8.51a3,3,0,0,1,0,4.24L29.44,44a3,3,0,0,1-2.12.88h-4a3,3,0,0,0-3,3h0a3,3,0,0,0,3,3H29.8A3,3,0,0,0,31.92,50l6.88-6.66a3,3,0,0,1,4.24,0L52.2,52.5a3,3,0,0,0,4.24,0h0a3,3,0,0,0,0-4.24l-9.15-9.15a3,3,0,0,1,0-4.24l6.55-6.78A3,3,0,0,0,53.85,23.84Z"/><path class="cls-1" d="M36.42,0a36.54,36.54,0,0,0-35,26.39,35.3,35.3,0,0,0-1,4.35A36.72,36.72,0,0,0,0,36.43v.14a35.93,35.93,0,0,0,.36,5A36.43,36.43,0,1,0,36.42,0Zm0,68.86A32.55,32.55,0,0,1,4.32,41,31.29,31.29,0,0,1,4,36.56v-.13a32.4,32.4,0,0,1,.39-5.06,31.35,31.35,0,0,1,.86-3.88A32.43,32.43,0,1,1,36.42,68.86Z"/></g></g></svg>