<svg xmlns="http://www.w3.org/2000/svg" xmlns:xlink="http://www.w3.org/1999/xlink" viewBox="0 0 460 460"><defs><style>.cls-1{fill:url(#linear-gradient);}.cls-2{fill:#fff;}</style><linearGradient id="linear-gradient" x1="392.63" y1="392.63" x2="67.37" y2="67.37" gradientUnits="userSpaceOnUse"><stop offset="0" stop-color="#0098cc"/><stop offset="0.24" stop-color="#00a3d0"/><stop offset="0.63" stop-color="#00bfdb"/></linearGradient></defs><title>Asset 5</title><g id="Layer_2" data-name="Layer 2"><g id="Layer_3" data-name="Layer 3"><circle class="cls-1" cx="230" cy="230" r="230"/><path class="cls-2" d="M297.17,181.93h0a11.57,11.57,0,0,0-16.37,0l-25.27,26.14a11.57,11.57,0,0,1-16.37,0L199.6,168.49a11.57,11.57,0,0,0-8.19-3.39H160.92a11.57,11.57,0,0,0-11.57,11.57h0a11.57,11.57,0,0,0,11.57,11.57H181.8a11.57,11.57,0,0,1,8.18,3.39l32.81,32.81a11.57,11.57,0,0,1,0,16.37L203,259.7a11.57,11.57,0,0,1-8.18,3.39H179.57A11.57,11.57,0,0,0,168,274.66h0a11.57,11.57,0,0,0,11.57,11.57h24.87a11.57,11.57,0,0,0,8.18-3.39l26.54-25.67a11.57,11.57,0,0,1,16.37,0l35.28,35.28a11.57,11.57,0,0,0,16.37,0h0a11.57,11.57,0,0,0,0-16.37l-35.28-35.28a11.57,11.57,0,0,1,0-16.37l25.27-26.14A11.57,11.57,0,0,0,297.17,181.93Z"/><path class="cls-2" d="M230,90c-62.4,0-117.93,41.84-135,101.77a136.13,136.13,0,0,0-3.74,16.78,141.62,141.62,0,0,0-1.7,21.94V231a138.56,138.56,0,0,0,1.39,19.24C100.57,319.07,160.35,371,230,371c77.44,0,140.49-63.05,140.49-140.49S307.39,90,230,90Zm0,265.55c-62,0-115.15-46.2-123.79-107.48A120.68,120.68,0,0,1,104.93,231v-.5a124.94,124.94,0,0,1,1.5-19.51,120.91,120.91,0,0,1,3.32-15A125.06,125.06,0,1,1,230,355.55Z"/></g></g></svg>