<?xml version="1.0" encoding="UTF-8" standalone="no"?>
<svg
   xmlns:dc="http://purl.org/dc/elements/1.1/"
   xmlns:cc="http://creativecommons.org/ns#"
   xmlns:rdf="http://www.w3.org/1999/02/22-rdf-syntax-ns#"
   xmlns:svg="http://www.w3.org/2000/svg"
   xmlns="http://www.w3.org/2000/svg"
   id="svg322"
   version="1.1"
   viewBox="0 0 147.6375 40.745834"
   height="154"
   width="558">
  <defs
     id="defs316" />
  <metadata
     id="metadata319">
    <rdf:RDF>
      <cc:Work
         rdf:about="">
        <dc:format>image/svg+xml</dc:format>
        <dc:type
           rdf:resource="http://purl.org/dc/dcmitype/StillImage" />
        <dc:title></dc:title>
      </cc:Work>
    </rdf:RDF>
  </metadata>
  <g
     transform="translate(-28.612797,-6.3772883)"
     id="layer1">
    <g
       id="g287"
       transform="matrix(0.35088231,0,0,-0.35088231,30.093545,115.77626)">
      <g
         id="g20"
         transform="translate(158.6675,280.7109)">
        <path
           d="m 0,0 c -2.643,0 -4.786,-2.143 -4.786,-4.786 v -29.043 c 0,-1.454 -1.84,-2.083 -2.731,-0.934 L -32.56,-2.441 C -33.753,-0.901 -35.591,0 -37.539,0 h -2.343 c -1.981,0 -3.587,-1.606 -3.587,-3.587 v -47.002 c 0,-2.644 2.143,-4.786 4.786,-4.786 2.643,0 4.786,2.142 4.786,4.786 v 30.018 c 0,1.497 1.895,2.146 2.813,0.963 l 26.392,-34.051 c 0.839,-1.083 2.132,-1.716 3.503,-1.716 h 1.544 c 2.447,0 4.431,1.983 4.431,4.431 V -4.786 C 4.786,-2.143 2.644,0 0,0"
           style="fill:#5dcbf5;fill-opacity:1;fill-rule:nonzero;stroke:none"
           id="path22" />
      </g>
      <g
         id="g24"
         transform="translate(202.4893,249.1523)">
        <path
           d="m 0,0 h -15.882 c -1.526,0 -2.636,1.47 -2.164,2.926 1.554,4.869 5.257,8.059 10.181,8.059 5.285,0 8.697,-3.37 10.043,-8.072 C 2.594,1.456 1.526,0 0,0 m -3.634,18.448 c -12.83,2.385 -24.565,-7.837 -24.565,-20.889 v -0.652 c 0,-12.886 9.335,-21.666 21.444,-21.666 5.992,0 10.625,1.872 14.259,4.951 1.637,1.401 1.609,3.954 0,5.382 -1.526,1.346 -3.759,1.443 -5.41,0.25 -2.524,-1.803 -5.243,-2.761 -8.697,-2.761 -5.187,0 -9.432,2.691 -11.262,7.602 -0.541,1.456 0.582,2.996 2.122,2.996 h 25.3 c 1.47,0 2.663,1.207 2.663,2.663 v 0.028 c 0,10.708 -5.312,20.154 -15.854,22.096"
           style="fill:#5dcbf5;fill-opacity:1;fill-rule:nonzero;stroke:none"
           id="path26" />
      </g>
      <g
         id="g28"
         transform="translate(256.6011,267.104)">
        <path
           d="m 0,0 c -2.643,0 -4.786,-2.143 -4.786,-4.786 v -18.788 c 0,-6.487 -3.876,-10.363 -9.414,-10.363 -5.696,0 -8.939,3.718 -8.939,10.205 v 18.946 c 0,2.643 -2.143,4.786 -4.786,4.786 -2.643,0 -4.786,-2.143 -4.786,-4.786 V -26.58 c 0,-9.731 5.458,-16.059 14.872,-16.059 6.091,0 9.881,2.999 12.547,6.639 0.16,0.219 0.506,0.102 0.506,-0.168 v -1.902 c 0,-2.042 1.656,-3.699 3.699,-3.699 h 2.174 c 2.043,0 3.699,1.657 3.699,3.699 V -4.786 C 4.786,-2.143 2.643,0 0,0"
           style="fill:#5dcbf5;fill-opacity:1;fill-rule:nonzero;stroke:none"
           id="path30" />
      </g>
      <g
         id="g32"
         transform="translate(294.748,267.7534)">
        <path
           d="m 0,0 c -5.249,-0.754 -8.941,-4.146 -11.234,-8.882 -0.13,-0.268 -0.531,-0.178 -0.531,0.121 v 3.6 c 0,2.492 -2.02,4.512 -4.511,4.512 h -0.55 c -2.491,0 -4.511,-2.02 -4.511,-4.512 v -32.471 c 0,-2.643 2.143,-4.786 4.786,-4.786 2.643,0 4.786,2.143 4.786,4.786 v 11.114 c 0,9.493 4.301,14.86 10.81,16.2 2.02,0.415 3.804,2.018 3.958,4.074 l 0.025,3.623 C 3.028,-1.009 1.596,0.229 0,0"
           style="fill:#5dcbf5;fill-opacity:1;fill-rule:nonzero;stroke:none"
           id="path34" />
      </g>
      <g
         id="g36"
         transform="translate(378.2305,240.4414)">
        <path
           d="m 0,0 c 0,-5.215 -4.744,-8.78 -11.083,-8.78 -4.508,0 -8.059,2.219 -8.059,6.172 v 0.153 c 0,4.036 3.551,6.491 9.571,6.491 3.107,0 5.992,-0.499 8.295,-1.22 C -0.514,2.58 0,1.858 0,1.054 Z m -9.1,27.297 c -4.965,0 -8.697,-0.762 -12.15,-1.969 -2.108,-0.735 -3.218,-3.079 -2.497,-5.202 0.722,-2.094 2.969,-3.259 5.091,-2.607 2.51,0.776 5.091,1.234 8.211,1.234 6.09,0 9.64,-2.663 10.195,-7.545 0.014,-0.472 -0.069,-1.832 -1.54,-1.707 -2.746,0.763 -5.7,1.263 -9.917,1.263 -9.737,0 -16.937,-4.439 -16.937,-13.691 v -0.152 c 0,-8.392 6.964,-12.9 14.87,-12.9 5.978,0 10.195,2.33 13.039,5.451 0.179,0.195 0.499,0.07 0.499,-0.194 v -0.028 c 0,-2.399 1.942,-4.355 4.355,-4.355 h 0.777 c 2.4,0 4.355,1.956 4.355,4.355 V 9.654 c 0,11.152 -6.006,17.643 -18.351,17.643"
           style="fill:#5dcbf5;fill-opacity:1;fill-rule:nonzero;stroke:none"
           id="path38" />
      </g>
      <g
         id="g40"
         transform="translate(404.3652,283.084)">
        <path
           d="m 0,0 h -0.302 c -2.559,0 -4.635,-2.075 -4.635,-4.635 v -48.479 c 0,-2.559 2.076,-4.635 4.635,-4.635 H 0 c 2.56,0 4.635,2.076 4.635,4.635 V -4.635 C 4.635,-2.075 2.56,0 0,0"
           style="fill:#5dcbf5;fill-opacity:1;fill-rule:nonzero;stroke:none"
           id="path42" />
      </g>
      <g
         id="g44"
         transform="translate(330.3623,249.1523)">
        <path
           d="m 0,0 h -15.882 c -1.525,0 -2.635,1.47 -2.178,2.926 1.568,4.869 5.257,8.059 10.196,8.059 5.284,0 8.696,-3.37 10.042,-8.072 C 2.594,1.456 1.512,0 0,0 m -3.634,18.448 c -12.83,2.385 -24.565,-7.837 -24.565,-20.889 v -0.652 c 0,-12.886 9.335,-21.666 21.43,-21.666 5.993,0 10.639,1.872 14.259,4.951 1.651,1.401 1.623,3.954 0.014,5.382 -1.525,1.346 -3.759,1.443 -5.409,0.25 -2.525,-1.803 -5.243,-2.761 -8.698,-2.761 -5.201,0 -9.431,2.691 -11.262,7.602 -0.541,1.456 0.568,2.996 2.122,2.996 h 25.3 c 1.47,0 2.664,1.207 2.664,2.663 v 0.028 c 0,10.708 -5.327,20.154 -15.855,22.096"
           style="fill:#5dcbf5;fill-opacity:1;fill-rule:nonzero;stroke:none"
           id="path46" />
      </g>
      <g
         id="g48"
         transform="translate(78.0117,271.1943)">
        <path
           d="m 0,0 v 0 c -1.625,1.625 -4.261,1.625 -5.887,0 l -9.09,-9.402 c -1.626,-1.626 -4.262,-1.626 -5.887,0 L -35.093,4.835 c -0.781,0.781 -1.84,1.22 -2.945,1.22 h -10.965 c -2.299,0 -4.163,-1.864 -4.163,-4.163 0,-2.299 1.864,-4.163 4.163,-4.163 h 7.507 c 1.104,0 2.163,-0.438 2.944,-1.219 l 11.801,-11.801 c 1.625,-1.625 1.625,-4.261 0,-5.886 l -7.107,-6.794 c -0.781,-0.78 -1.839,-1.219 -2.943,-1.219 h -5.497 c -2.299,0 -4.162,-1.864 -4.162,-4.163 0,-2.299 1.863,-4.163 4.162,-4.163 h 8.945 c 1.104,0 2.163,0.439 2.944,1.22 l 9.545,9.232 c 1.625,1.625 4.261,1.625 5.886,0 l 12.69,-12.69 c 1.626,-1.626 4.262,-1.626 5.887,0 1.626,1.626 1.626,4.261 0,5.887 l -12.689,12.69 c -1.626,1.625 -1.626,4.261 0,5.886 L 0,-5.887 C 1.625,-4.262 1.625,-1.626 0,0"
           style="fill:#5dcbf5;fill-opacity:1;fill-rule:nonzero;stroke:none"
           id="path50" />
      </g>
      <g
         id="g52"
         transform="translate(53.8374,208.7471)">
        <path
           d="m 0,0 c -22.29,0 -41.417,16.617 -44.524,38.657 -0.278,1.928 -0.444,4.009 -0.444,6.145 v 0.18 c 0,2.386 0.18,4.744 0.541,7.019 0.291,1.858 0.693,3.662 1.193,5.382 5.478,19.183 23.247,32.582 43.234,32.582 24.801,0 44.983,-20.168 44.983,-44.983 C 44.983,20.182 24.801,0 0,0 m 0,95.513 c -22.442,0 -42.416,-15.05 -48.561,-36.605 -0.568,-1.928 -1.012,-3.967 -1.345,-6.033 -0.403,-2.553 -0.611,-5.216 -0.611,-7.893 v -0.194 c 0.014,-2.413 0.181,-4.757 0.5,-6.921 C -46.536,13.122 -25.036,-5.548 0,-5.548 c 27.853,0 50.531,22.678 50.531,50.53 0,27.867 -22.678,50.531 -50.531,50.531"
           style="fill:#5dcbf5;fill-opacity:1;fill-rule:nonzero;stroke:none"
           id="path54" />
      </g>
    </g>
  </g>
</svg>
