<svg xmlns="http://www.w3.org/2000/svg" xmlns:xlink="http://www.w3.org/1999/xlink" viewBox="0 0 1366 768"><defs><style>.cls-1{fill:url(#linear-gradient);}.cls-2{opacity:0.15;}.cls-3{fill:none;stroke:#dde9ed;stroke-linecap:round;stroke-linejoin:round;}.cls-4,.cls-8{opacity:0.6;}.cls-4{fill:url(#linear-gradient-2);}.cls-5{fill:url(#linear-gradient-3);}.cls-6{fill:url(#linear-gradient-4);}.cls-7{fill:url(#linear-gradient-5);}.cls-8{fill:url(#linear-gradient-6);}</style><linearGradient id="linear-gradient" x1="149.5" y1="-149.5" x2="1216.5" y2="917.5" gradientUnits="userSpaceOnUse"><stop offset="0" stop-color="aqua"/><stop offset="0.34" stop-color="#00cde6"/><stop offset="1" stop-color="#0098cc"/></linearGradient><linearGradient id="linear-gradient-2" x1="173.63" y1="187.7" x2="417.41" y2="431.48" gradientTransform="translate(-3.28 0.18)" gradientUnits="userSpaceOnUse"><stop offset="0" stop-color="aqua"/><stop offset="0.34" stop-color="#00cde6"/><stop offset="1" stop-color="#06c"/></linearGradient><linearGradient id="linear-gradient-3" x1="1111.04" y1="513.3" x2="1365.87" y2="768.13" xlink:href="#linear-gradient"/><linearGradient id="linear-gradient-4" x1="57.67" y1="633.69" x2="249.38" y2="825.4" xlink:href="#linear-gradient"/><linearGradient id="linear-gradient-5" x1="1155.25" y1="230.2" x2="1366.86" y2="441.82" gradientUnits="userSpaceOnUse"><stop offset="0" stop-color="aqua"/><stop offset="0.34" stop-color="#00cde6"/><stop offset="1" stop-color="#006fcc"/></linearGradient><linearGradient id="linear-gradient-6" x1="95.25" y1="91.25" x2="230.43" y2="226.43" xlink:href="#linear-gradient"/></defs><title>sale-banner</title><g id="background"><rect class="cls-1" width="1366" height="768"/></g><g id="objects"><g class="cls-2"><polyline class="cls-3" points="357.38 40.01 357.38 88.91 357.38 137.82 357.38 186.72 357.38 235.62 357.38 284.54 357.38 333.44 357.38 382.34"/><polyline class="cls-3" points="407.61 382.34 407.61 333.44 407.61 284.54 407.61 235.62 407.61 186.72 407.61 137.82 407.61 88.91 407.61 40.01"/><polyline class="cls-3" points="457.84 382.34 457.84 333.44 457.84 284.54 457.84 235.62 457.84 186.72 457.84 137.82 457.84 88.91 457.84 40.01"/><polyline class="cls-3" points="508.07 382.34 508.07 333.44 508.07 284.54 508.07 235.62 508.07 186.72 508.07 137.82 508.07 88.91 508.07 40.01"/><polyline class="cls-3" points="156.46 40.01 156.46 88.91 156.46 137.82 156.46 186.72 156.46 235.62 156.46 284.54 156.46 333.44 156.46 382.34"/><polyline class="cls-3" points="206.69 40.01 206.69 88.91 206.69 137.82 206.69 186.72 206.69 235.62 206.69 284.54 206.69 333.44 206.69 382.34"/><line class="cls-3" x1="708.99" y1="88.91" x2="56.01" y2="88.91"/><line class="cls-3" x1="708.99" y1="235.63" x2="56.01" y2="235.63"/><line class="cls-3" x1="708.99" y1="284.53" x2="56.01" y2="284.53"/><line class="cls-3" x1="708.99" y1="333.44" x2="56.01" y2="333.44"/><polyline class="cls-3" points="56 382.34 106.23 382.34 156.46 382.34 206.69 382.34 256.92 382.34 307.15 382.34 357.38 382.34 407.61 382.34 457.84 382.34 508.07 382.34 558.3 382.34 608.53 382.34 658.76 382.34 708.99 382.34"/><line class="cls-3" x1="708.99" y1="186.72" x2="56.01" y2="186.72"/><line class="cls-3" x1="708.99" y1="137.82" x2="56.01" y2="137.82"/><polyline class="cls-3" points="106.23 40.01 106.23 88.91 106.23 137.82 106.23 186.72 106.23 235.62 106.23 284.54 106.23 333.44 106.23 382.34"/><polyline class="cls-3" points="256.92 40.01 256.92 88.91 256.92 137.82 256.92 186.72 256.92 235.62 256.92 284.54 256.92 333.44 256.92 382.34"/><polyline class="cls-3" points="307.15 40.01 307.15 88.91 307.15 137.82 307.15 186.72 307.15 235.62 307.15 284.54 307.15 333.44 307.15 382.34"/><polyline class="cls-3" points="558.3 382.34 558.3 333.44 558.3 284.54 558.3 235.62 558.3 186.72 558.3 137.82 558.3 88.91 558.3 40.01"/><polyline class="cls-3" points="608.53 382.34 608.53 333.44 608.53 284.54 608.53 235.62 608.53 186.72 608.53 137.82 608.53 88.91 608.53 40.01"/><polyline class="cls-3" points="658.76 382.34 658.76 333.44 658.76 284.54 658.76 235.62 658.76 186.72 658.76 137.82 658.76 88.91 658.76 40.01"/><path class="cls-3" d="M709,40"/><path class="cls-3" d="M759.22,40"/></g><g class="cls-2"><polyline class="cls-3" points="357.38 382.36 357.38 431.26 357.38 480.17 357.38 529.07 357.38 577.97 357.38 626.89 357.38 675.79 357.38 724.69"/><polyline class="cls-3" points="407.61 724.69 407.61 675.79 407.61 626.89 407.61 577.97 407.61 529.07 407.61 480.17 407.61 431.26 407.61 382.36"/><polyline class="cls-3" points="457.84 724.69 457.84 675.79 457.84 626.89 457.84 577.97 457.84 529.07 457.84 480.17 457.84 431.26 457.84 382.36"/><polyline class="cls-3" points="508.07 724.69 508.07 675.79 508.07 626.89 508.07 577.97 508.07 529.07 508.07 480.17 508.07 431.26 508.07 382.36"/><polyline class="cls-3" points="156.46 382.36 156.46 431.26 156.46 480.17 156.46 529.07 156.46 577.97 156.46 626.89 156.46 675.79 156.46 724.69"/><polyline class="cls-3" points="206.69 382.36 206.69 431.26 206.69 480.17 206.69 529.07 206.69 577.97 206.69 626.89 206.69 675.79 206.69 724.69"/><line class="cls-3" x1="708.99" y1="431.26" x2="56.01" y2="431.26"/><line class="cls-3" x1="708.99" y1="577.98" x2="56.01" y2="577.98"/><line class="cls-3" x1="708.99" y1="626.88" x2="56.01" y2="626.88"/><line class="cls-3" x1="708.99" y1="675.79" x2="56.01" y2="675.79"/><polyline class="cls-3" points="56 724.69 106.23 724.69 156.46 724.69 206.69 724.69 256.92 724.69 307.15 724.69 357.38 724.69 407.61 724.69 457.84 724.69 508.07 724.69 558.3 724.69 608.53 724.69 658.76 724.69 708.99 724.69"/><line class="cls-3" x1="708.99" y1="529.07" x2="56.01" y2="529.07"/><line class="cls-3" x1="708.99" y1="480.17" x2="56.01" y2="480.17"/><polyline class="cls-3" points="106.23 382.36 106.23 431.26 106.23 480.17 106.23 529.07 106.23 577.97 106.23 626.89 106.23 675.79 106.23 724.69"/><polyline class="cls-3" points="256.92 382.36 256.92 431.26 256.92 480.17 256.92 529.07 256.92 577.97 256.92 626.89 256.92 675.79 256.92 724.69"/><polyline class="cls-3" points="307.15 382.36 307.15 431.26 307.15 480.17 307.15 529.07 307.15 577.97 307.15 626.89 307.15 675.79 307.15 724.69"/><polyline class="cls-3" points="558.3 724.69 558.3 675.79 558.3 626.89 558.3 577.97 558.3 529.07 558.3 480.17 558.3 431.26 558.3 382.36"/><polyline class="cls-3" points="608.53 724.69 608.53 675.79 608.53 626.89 608.53 577.97 608.53 529.07 608.53 480.17 608.53 431.26 608.53 382.36"/><polyline class="cls-3" points="658.76 724.69 658.76 675.79 658.76 626.89 658.76 577.97 658.76 529.07 658.76 480.17 658.76 431.26 658.76 382.36"/><path class="cls-3" d="M709,382.36"/><path class="cls-3" d="M759.22,382.36"/></g><g class="cls-2"><polyline class="cls-3" points="961.16 40.01 961.16 88.91 961.16 137.82 961.16 186.72 961.16 235.62 961.16 284.54 961.16 333.44 961.16 382.34"/><polyline class="cls-3" points="1011.39 382.34 1011.39 333.44 1011.39 284.54 1011.39 235.62 1011.39 186.72 1011.39 137.82 1011.39 88.91 1011.39 40.01"/><polyline class="cls-3" points="1061.62 382.34 1061.62 333.44 1061.62 284.54 1061.62 235.62 1061.62 186.72 1061.62 137.82 1061.62 88.91 1061.62 40.01"/><polyline class="cls-3" points="1111.85 382.34 1111.85 333.44 1111.85 284.54 1111.85 235.62 1111.85 186.72 1111.85 137.82 1111.85 88.91 1111.85 40.01"/><polyline class="cls-3" points="760.24 40.01 760.24 88.91 760.24 137.82 760.24 186.72 760.24 235.62 760.24 284.54 760.24 333.44 760.24 382.34"/><polyline class="cls-3" points="810.47 40.01 810.47 88.91 810.47 137.82 810.47 186.72 810.47 235.62 810.47 284.54 810.47 333.44 810.47 382.34"/><line class="cls-3" x1="1312.77" y1="88.91" x2="659.79" y2="88.91"/><line class="cls-3" x1="1312.77" y1="235.63" x2="659.79" y2="235.63"/><line class="cls-3" x1="1312.77" y1="284.53" x2="659.79" y2="284.53"/><line class="cls-3" x1="1312.77" y1="333.44" x2="659.79" y2="333.44"/><polyline class="cls-3" points="659.78 382.34 710.01 382.34 760.24 382.34 810.47 382.34 860.7 382.34 910.93 382.34 961.16 382.34 1011.39 382.34 1061.62 382.34 1111.85 382.34 1162.08 382.34 1212.31 382.34 1262.54 382.34 1312.77 382.34"/><line class="cls-3" x1="1312.77" y1="186.72" x2="659.79" y2="186.72"/><line class="cls-3" x1="1312.77" y1="137.82" x2="659.79" y2="137.82"/><polyline class="cls-3" points="710.01 40.01 710.01 88.91 710.01 137.82 710.01 186.72 710.01 235.62 710.01 284.54 710.01 333.44 710.01 382.34"/><polyline class="cls-3" points="860.7 40.01 860.7 88.91 860.7 137.82 860.7 186.72 860.7 235.62 860.7 284.54 860.7 333.44 860.7 382.34"/><polyline class="cls-3" points="910.93 40.01 910.93 88.91 910.93 137.82 910.93 186.72 910.93 235.62 910.93 284.54 910.93 333.44 910.93 382.34"/><polyline class="cls-3" points="1162.08 382.34 1162.08 333.44 1162.08 284.54 1162.08 235.62 1162.08 186.72 1162.08 137.82 1162.08 88.91 1162.08 40.01"/><polyline class="cls-3" points="1212.31 382.34 1212.31 333.44 1212.31 284.54 1212.31 235.62 1212.31 186.72 1212.31 137.82 1212.31 88.91 1212.31 40.01"/><polyline class="cls-3" points="1262.54 382.34 1262.54 333.44 1262.54 284.54 1262.54 235.62 1262.54 186.72 1262.54 137.82 1262.54 88.91 1262.54 40.01"/><path class="cls-3" d="M1312.77,40"/><path class="cls-3" d="M1363,40"/></g><g class="cls-2"><polyline class="cls-3" points="961.16 382.36 961.16 431.26 961.16 480.17 961.16 529.07 961.16 577.97 961.16 626.89 961.16 675.79 961.16 724.69"/><polyline class="cls-3" points="1011.39 724.69 1011.39 675.79 1011.39 626.89 1011.39 577.97 1011.39 529.07 1011.39 480.17 1011.39 431.26 1011.39 382.36"/><polyline class="cls-3" points="1061.62 724.69 1061.62 675.79 1061.62 626.89 1061.62 577.97 1061.62 529.07 1061.62 480.17 1061.62 431.26 1061.62 382.36"/><polyline class="cls-3" points="1111.85 724.69 1111.85 675.79 1111.85 626.89 1111.85 577.97 1111.85 529.07 1111.85 480.17 1111.85 431.26 1111.85 382.36"/><polyline class="cls-3" points="760.24 382.36 760.24 431.26 760.24 480.17 760.24 529.07 760.24 577.97 760.24 626.89 760.24 675.79 760.24 724.69"/><polyline class="cls-3" points="810.47 382.36 810.47 431.26 810.47 480.17 810.47 529.07 810.47 577.97 810.47 626.89 810.47 675.79 810.47 724.69"/><line class="cls-3" x1="1312.77" y1="431.26" x2="659.79" y2="431.26"/><line class="cls-3" x1="1312.77" y1="577.98" x2="659.79" y2="577.98"/><line class="cls-3" x1="1312.77" y1="626.88" x2="659.79" y2="626.88"/><line class="cls-3" x1="1312.77" y1="675.79" x2="659.79" y2="675.79"/><polyline class="cls-3" points="659.78 724.69 710.01 724.69 760.24 724.69 810.47 724.69 860.7 724.69 910.93 724.69 961.16 724.69 1011.39 724.69 1061.62 724.69 1111.85 724.69 1162.08 724.69 1212.31 724.69 1262.54 724.69 1312.77 724.69"/><line class="cls-3" x1="1312.77" y1="529.07" x2="659.79" y2="529.07"/><line class="cls-3" x1="1312.77" y1="480.17" x2="659.79" y2="480.17"/><polyline class="cls-3" points="710.01 382.36 710.01 431.26 710.01 480.17 710.01 529.07 710.01 577.97 710.01 626.89 710.01 675.79 710.01 724.69"/><polyline class="cls-3" points="860.7 382.36 860.7 431.26 860.7 480.17 860.7 529.07 860.7 577.97 860.7 626.89 860.7 675.79 860.7 724.69"/><polyline class="cls-3" points="910.93 382.36 910.93 431.26 910.93 480.17 910.93 529.07 910.93 577.97 910.93 626.89 910.93 675.79 910.93 724.69"/><polyline class="cls-3" points="1162.08 724.69 1162.08 675.79 1162.08 626.89 1162.08 577.97 1162.08 529.07 1162.08 480.17 1162.08 431.26 1162.08 382.36"/><polyline class="cls-3" points="1212.31 724.69 1212.31 675.79 1212.31 626.89 1212.31 577.97 1212.31 529.07 1212.31 480.17 1212.31 431.26 1212.31 382.36"/><polyline class="cls-3" points="1262.54 724.69 1262.54 675.79 1262.54 626.89 1262.54 577.97 1262.54 529.07 1262.54 480.17 1262.54 431.26 1262.54 382.36"/><path class="cls-3" d="M1312.77,382.36"/><path class="cls-3" d="M1363,382.36"/></g></g><g id="circles"><path class="cls-4" d="M251.25,149.69h44.62A156.45,156.45,0,0,1,452.31,306.14v44.62A103.55,103.55,0,0,1,348.75,454.31H251.25A103.55,103.55,0,0,1,147.69,350.75V253.25A103.55,103.55,0,0,1,251.25,149.69Z" transform="translate(92.9 -69.9) rotate(15.7)"/><path class="cls-5" d="M1366,442.67c-128.43-32.16-264,34.73-314.52,161.09A267.5,267.5,0,0,0,1040.16,768H1366Z"/><path class="cls-6" d="M232.76,623.58A153.79,153.79,0,0,0,0,746.35v17.76q.11,1.95.28,3.89h306.5A153.75,153.75,0,0,0,232.76,623.58Z"/><path class="cls-7" d="M1207.65,193.68A169.75,169.75,0,0,0,1162,473.5a268.54,268.54,0,0,1,204-30.82V204.19A169.49,169.49,0,0,0,1207.65,193.68Z"/><path class="cls-8" d="M167.56,213.86C183,159,240.44,126.77,295.27,142.18l15.16,4.26a89.59,89.59,0,0,0-27.68-44.34L253,76.15a89.63,89.63,0,0,0-88-17.2L127.63,71.77a89.63,89.63,0,0,0-58.88,67.58l-7.58,38.77A89.63,89.63,0,0,0,90.25,262.9l29.79,26a89.55,89.55,0,0,0,22.42,14.3Z"/></g></svg>